<?xml version="1.0" standalone="no"?>
<!DOCTYPE svg PUBLIC "-//W3C//DTD SVG 20010904//EN"
 "http://www.w3.org/TR/2001/REC-SVG-20010904/DTD/svg10.dtd">
<svg version="1.0" xmlns="http://www.w3.org/2000/svg"
 width="7674.000000pt" height="2848.000000pt" viewBox="0 0 7674.000000 2848.000000"
 preserveAspectRatio="xMidYMid meet">

<g transform="translate(0.000000,2848.000000) scale(0.100000,-0.100000)"
fill="#000000" stroke="none">
<path d="M39270 21021 c-30 -10 -73 -27 -96 -39 -48 -25 -144 -109 -144 -127
0 -7 33 -42 73 -77 l72 -65 53 42 c91 72 182 84 287 39 33 -15 105 -42 160
-62 88 -31 112 -35 200 -36 115 0 194 19 266 65 53 34 131 110 127 124 -2 6
-33 38 -70 73 l-67 63 -55 -41 c-106 -80 -177 -84 -337 -19 -57 23 -135 50
-173 61 -90 23 -222 23 -296 -1z"/>
<path d="M47220 20828 l0 -85 81 -11 c151 -22 220 -93 175 -181 -20 -37 -55
-51 -131 -51 l-65 0 1 -37 c0 -21 6 -87 12 -148 l12 -110 76 -3 c87 -3 84 -6
88 87 3 68 5 71 44 71 38 0 113 33 145 63 36 33 63 93 69 152 18 176 -158 319
-409 333 l-98 5 0 -85z"/>
<path d="M27101 20724 c-1 -45 -35 -153 -62 -199 -10 -16 -26 -45 -35 -64 -10
-18 -52 -67 -94 -110 -57 -56 -98 -87 -161 -119 -46 -23 -93 -42 -104 -42 -11
0 -38 -8 -59 -18 l-40 -18 60 -14 c65 -15 145 -50 213 -94 57 -36 155 -137
181 -184 11 -20 24 -44 29 -52 41 -75 71 -165 72 -220 l1 -45 14 65 c8 36 19
81 25 100 16 53 72 162 87 167 6 3 12 10 12 17 0 20 133 141 195 176 61 35 91
47 178 70 26 7 47 16 47 19 0 4 -24 13 -52 20 -52 13 -109 34 -138 52 -8 4
-31 16 -50 26 -19 9 -73 56 -120 103 -106 106 -147 183 -184 345 -13 58 -14
59 -15 19z"/>
<path d="M28810 14285 l0 -6445 30 0 30 0 0 6445 0 6445 -30 0 -30 0 0 -6445z"/>
<path d="M16005 20665 c-57 -196 -184 -354 -346 -432 -46 -22 -106 -46 -134
-53 -72 -18 -73 -25 -8 -40 62 -14 186 -67 191 -81 2 -5 10 -9 18 -9 20 0 184
-165 184 -184 0 -9 3 -16 8 -16 14 0 61 -109 83 -190 18 -66 25 -68 39 -8 22
94 65 185 120 252 44 53 142 146 155 146 3 0 24 12 48 27 23 15 83 39 132 54
50 15 83 30 75 33 -8 3 -38 12 -66 20 -56 15 -167 66 -172 79 -2 4 -10 7 -17
7 -13 0 -135 116 -165 156 -46 63 -78 130 -105 224 l-22 75 -18 -60z"/>
<path d="M39356 20458 c-94 -89 -189 -178 -211 -199 l-40 -39 151 0 150 0 117
95 c64 52 119 95 123 95 4 0 60 -43 125 -95 l118 -95 153 0 153 1 -81 77 c-44
42 -139 132 -212 200 l-131 122 -122 -1 -122 -1 -171 -160z"/>
<path d="M54734 20523 c18 -156 130 -265 313 -307 128 -29 283 -16 396 33 66
29 150 110 177 173 12 28 24 75 27 104 l6 54 -120 0 -120 0 -7 -39 c-7 -48
-50 -94 -103 -112 -50 -17 -178 -17 -226 -1 -53 19 -96 66 -103 113 l-7 39
-120 0 -120 0 7 -57z"/>
<path d="M33920 20023 c-125 -10 -287 -53 -407 -110 -362 -170 -574 -587 -550
-1078 27 -540 273 -864 740 -972 54 -13 120 -17 267 -17 220 0 315 15 513 80
86 29 108 40 112 57 3 12 4 258 3 547 l-3 525 -382 3 -383 2 0 -125 0 -125
230 0 230 0 0 -335 0 -334 -37 -10 c-204 -54 -455 -36 -613 44 -138 69 -258
217 -304 375 -47 158 -61 430 -31 587 61 319 237 524 515 600 51 14 101 18
235 17 150 -1 181 -4 268 -27 54 -14 134 -42 178 -61 43 -18 81 -31 83 -27 2
3 5 67 5 142 l2 137 -63 25 c-72 28 -163 52 -259 67 -70 11 -275 18 -349 13z"/>
<path d="M59146 20020 c-520 -59 -857 -411 -917 -957 -22 -203 5 -452 68 -629
101 -284 322 -485 613 -557 250 -63 582 -41 850 55 l95 34 0 545 0 544 -382 3
-383 2 0 -125 0 -125 230 0 230 0 0 -335 0 -334 -37 -10 c-205 -54 -454 -36
-614 45 -137 68 -257 216 -303 374 -47 158 -61 429 -31 588 61 318 237 523
515 599 101 28 364 25 485 -5 72 -18 185 -59 272 -98 8 -4 11 34 12 139 l2
144 -53 22 c-172 69 -451 103 -652 81z"/>
<path d="M31106 19984 c-3 -9 -6 -488 -6 -1065 l0 -1049 145 0 145 0 0 867 c0
476 3 863 7 860 3 -4 45 -95 93 -202 48 -108 235 -495 416 -860 l329 -665 202
0 203 0 0 1065 0 1065 -145 0 -145 0 -2 -864 -3 -864 -110 237 c-60 130 -250
518 -422 864 l-313 627 -194 0 c-168 0 -195 -2 -200 -16z"/>
<path d="M34982 19188 c3 -741 5 -818 21 -873 70 -238 218 -380 467 -447 74
-20 108 -23 270 -22 213 0 285 14 425 83 187 93 302 240 358 458 22 87 22 93
22 848 l0 760 -152 3 -152 3 -3 -768 c-4 -684 -6 -774 -21 -826 -66 -225 -202
-318 -462 -317 -277 0 -414 103 -455 342 -7 41 -12 326 -13 813 l-2 750 -153
3 -153 3 3 -813z"/>
<path d="M36730 19996 c0 -2 183 -309 406 -680 l405 -676 0 -385 -1 -385 160
0 160 0 0 381 0 381 34 57 c18 31 200 336 405 678 204 342 371 625 371 628 0
3 -79 4 -177 3 l-176 -3 -104 -185 c-138 -244 -399 -714 -455 -818 l-45 -82
-48 92 c-79 152 -164 305 -368 658 l-194 335 -186 3 c-103 1 -187 0 -187 -2z"/>
<path d="M39026 19984 c-3 -9 -6 -488 -6 -1065 l0 -1049 645 0 645 0 0 125 0
125 -484 0 c-313 0 -486 4 -488 10 -1 5 -2 170 0 365 l2 355 465 0 465 0 0
125 0 124 -462 1 c-254 0 -463 2 -464 3 -2 2 -4 147 -5 322 l-1 320 486 3 486
2 0 125 0 125 -639 0 c-573 0 -639 -2 -645 -16z"/>
<path d="M40827 19993 c-4 -3 -7 -483 -7 -1065 l0 -1058 145 0 145 0 0 867 c0
476 3 863 7 860 3 -4 45 -95 93 -202 48 -108 235 -495 416 -860 l329 -665 202
0 203 0 0 1065 0 1065 -145 0 -145 0 -2 -865 -3 -864 -109 237 c-61 130 -251
519 -423 865 l-313 627 -193 0 c-107 0 -197 -3 -200 -7z"/>
<path d="M44700 18935 l0 -1065 155 0 155 0 0 488 0 487 467 -2 468 -3 3 -485
2 -485 155 0 155 0 0 1065 0 1065 -155 0 -155 0 0 -450 0 -450 -470 0 -470 0
0 450 0 450 -155 0 -155 0 0 -1065z"/>
<path d="M46845 18949 c-203 -578 -371 -1057 -373 -1065 -3 -12 23 -14 156
-14 l160 0 78 230 79 230 469 -2 468 -3 78 -225 77 -225 166 -3 c92 -1 167 1
167 5 0 5 -165 484 -367 1066 l-367 1057 -211 0 -210 0 -370 -1051z m941 -341
c5 -17 -17 -18 -370 -18 -207 0 -376 3 -376 7 0 5 84 260 187 568 l186 560
184 -550 c101 -303 186 -558 189 -567z"/>
<path d="M48687 19993 c-4 -3 -7 -60 -7 -125 l0 -118 260 0 260 0 0 -815 0
-815 -257 -2 -258 -3 0 -120 0 -120 675 0 675 0 0 120 0 120 -257 3 -258 2 0
815 0 815 260 0 261 0 -3 123 -3 122 -671 3 c-369 1 -674 -1 -677 -5z"/>
<path d="M52520 19551 l0 -450 -117 -3 -118 -3 -3 -122 -3 -123 121 0 120 0 0
-490 0 -490 298 0 c164 0 336 5 382 10 505 63 792 323 876 796 24 136 24 432
0 563 -69 378 -238 588 -558 695 -40 14 -100 29 -133 35 -33 5 -76 13 -95 17
-19 3 -200 8 -402 11 l-368 5 0 -451z m785 175 c39 -9 107 -34 151 -56 215
-106 314 -335 314 -730 0 -387 -131 -648 -376 -750 -110 -45 -200 -61 -391
-67 l-173 -6 0 367 0 366 195 0 196 0 -3 123 -3 122 -193 0 -192 0 0 329 0
329 203 -6 c125 -3 229 -12 272 -21z"/>
<path d="M54615 18949 c-203 -578 -371 -1057 -373 -1065 -3 -12 23 -14 156
-14 l160 0 78 230 79 230 469 -2 468 -3 78 -225 77 -225 166 -3 c92 -1 167 1
167 5 0 5 -165 484 -367 1066 l-367 1057 -211 0 -210 0 -370 -1051z m941 -341
c5 -17 -17 -18 -370 -18 -207 0 -376 3 -376 7 0 5 84 260 187 568 l186 560
184 -550 c101 -303 186 -558 189 -567z"/>
<path d="M56377 19993 c-4 -4 -7 -483 -7 -1065 l1 -1058 144 0 145 0 0 867 c0
477 4 863 8 858 5 -6 39 -80 76 -165 37 -85 223 -471 414 -857 l346 -703 203
0 203 0 0 1065 0 1065 -145 0 -145 0 -2 -865 -3 -864 -109 237 c-61 130 -251
519 -423 865 l-313 627 -193 0 c-107 0 -197 -3 -200 -7z"/>
<path d="M19895 19343 c-83 -7 -207 -25 -260 -39 -110 -29 -219 -65 -231 -76
-3 -4 -40 -24 -82 -44 -43 -21 -81 -42 -87 -46 -5 -4 -40 -30 -76 -56 -236
-174 -381 -392 -455 -682 l-24 -95 0 -1504 c0 -1098 -3 -1514 -11 -1542 -17
-54 -63 -105 -116 -129 -45 -20 -64 -20 -987 -20 -899 0 -944 -1 -1011 -20
-38 -10 -86 -25 -105 -32 -49 -18 -180 -97 -180 -108 0 -6 -7 -10 -15 -10 -8
0 -15 -3 -15 -7 0 -5 -25 -34 -54 -66 -46 -50 -95 -132 -126 -212 -29 -73 -40
-163 -40 -332 0 -141 4 -193 19 -253 27 -106 92 -250 114 -250 4 0 7 -4 7 -9
0 -5 27 -37 61 -70 33 -34 65 -61 70 -61 5 0 9 -4 9 -9 0 -5 9 -13 20 -16 11
-3 26 -12 32 -18 14 -14 116 -56 192 -81 44 -14 159 -16 1003 -16 934 0 955 0
998 -20 57 -26 109 -80 123 -129 9 -28 12 -447 12 -1622 0 -1712 -4 -1590 51
-1768 25 -79 92 -225 125 -268 13 -17 24 -36 24 -41 0 -6 3 -12 8 -14 4 -1 23
-23 41 -48 43 -56 166 -176 203 -198 15 -9 28 -20 28 -24 0 -4 6 -8 14 -8 8 0
16 -3 18 -7 18 -41 304 -174 433 -201 206 -44 185 -43 1280 -40 724 3 1076 8
1160 16 66 7 165 17 220 23 102 10 247 31 345 51 30 6 78 14 105 18 28 4 70
12 95 18 25 6 95 23 155 37 174 41 278 69 365 100 19 7 87 29 150 49 127 41
280 99 322 121 14 8 31 15 38 15 6 0 37 12 68 26 31 14 71 32 87 39 62 28 121
56 135 65 8 5 58 30 110 55 52 26 118 60 145 76 28 16 70 39 95 51 25 13 47
26 50 29 3 3 28 19 55 34 28 16 52 32 55 35 3 3 22 14 43 25 20 11 37 23 37
27 0 5 5 8 10 8 9 0 65 35 80 50 3 3 46 32 95 65 50 33 95 65 100 71 6 6 26
22 45 34 19 13 66 49 105 80 38 30 78 62 88 70 11 8 27 22 36 31 9 8 48 43 88
76 98 83 333 308 333 318 0 3 19 24 43 48 24 23 72 76 108 117 35 41 71 82 79
90 9 8 38 44 65 80 28 36 57 72 66 81 9 9 25 30 35 48 10 17 22 31 26 31 4 0
8 7 8 15 0 8 4 15 8 15 4 0 19 18 32 40 14 22 28 40 33 40 4 0 7 6 7 14 0 8 4
16 8 18 11 4 102 144 102 156 0 6 3 12 8 14 8 3 82 113 82 122 0 5 52 95 90
156 5 8 21 40 36 70 33 69 103 210 113 230 8 15 27 59 50 113 6 15 15 37 20
50 6 12 20 47 31 77 12 30 27 69 34 85 17 39 36 95 43 120 2 11 8 29 13 40 4
11 15 47 25 80 10 33 24 75 31 93 8 18 14 40 14 48 0 9 7 37 15 63 18 58 41
150 54 221 6 30 17 89 25 130 58 291 76 502 76 869 0 367 -20 601 -76 881 -8
41 -19 100 -25 130 -19 100 -96 379 -145 525 -28 83 -45 131 -55 155 -6 14
-17 39 -24 55 -7 17 -25 62 -40 100 -41 103 -148 330 -199 420 -12 22 -37 67
-56 100 -19 33 -40 71 -47 85 -8 14 -23 39 -33 55 -11 17 -23 37 -27 45 -3 8
-9 17 -12 20 -10 9 -46 64 -61 95 -8 16 -20 37 -27 45 -7 8 -57 77 -112 153
-56 76 -112 150 -126 165 -14 15 -35 42 -46 60 -11 17 -25 32 -30 32 -5 0 -9
5 -9 10 0 6 -10 21 -23 33 -12 12 -47 51 -78 87 -110 127 -416 426 -514 502
-16 12 -40 33 -53 45 -13 13 -49 42 -80 66 -31 23 -64 49 -73 58 -9 9 -30 25
-48 35 -17 10 -31 22 -31 26 0 4 -7 8 -15 8 -8 0 -15 4 -15 9 0 6 -18 20 -40
32 -22 13 -40 26 -40 31 0 4 -6 8 -14 8 -8 0 -16 4 -18 8 -3 7 -166 118 -193
132 -5 3 -35 21 -65 41 -31 20 -83 51 -115 69 -33 18 -76 43 -95 55 -74 46
-391 203 -475 235 -11 5 -42 18 -70 30 -27 12 -59 26 -70 30 -53 24 -105 43
-155 60 -30 10 -80 28 -110 40 -30 12 -68 25 -85 30 -16 4 -41 12 -55 18 -14
5 -52 18 -85 27 -33 10 -71 21 -85 25 -14 4 -54 16 -90 25 -36 10 -85 24 -109
31 -25 8 -53 14 -64 14 -11 0 -43 6 -71 14 -98 27 -321 70 -451 86 -49 6 -139
18 -200 25 -217 28 -504 35 -1415 38 -509 1 -938 1 -955 0z m2465 -1588 c96
-8 200 -18 230 -24 30 -5 89 -15 130 -22 99 -15 280 -58 350 -84 19 -7 73 -24
120 -39 121 -38 167 -56 345 -136 80 -36 143 -67 165 -80 70 -43 151 -90 156
-90 10 0 239 -154 242 -162 2 -5 10 -8 18 -8 8 0 14 -4 14 -8 0 -5 30 -30 68
-57 101 -75 113 -85 312 -286 190 -190 207 -210 269 -291 19 -27 39 -48 43
-48 4 0 8 -7 8 -15 0 -8 4 -15 8 -15 5 0 18 -18 31 -40 12 -22 25 -40 29 -40
4 0 12 -9 17 -19 6 -11 30 -51 55 -88 61 -93 69 -105 80 -128 6 -11 19 -33 30
-50 39 -60 189 -372 214 -445 8 -25 32 -90 51 -145 20 -55 39 -109 41 -120 3
-11 11 -42 19 -70 45 -163 65 -264 106 -540 21 -138 24 -560 5 -715 -19 -157
-41 -298 -62 -390 -8 -36 -20 -85 -25 -110 -24 -106 -94 -327 -141 -440 -47
-115 -100 -231 -114 -250 -6 -8 -17 -31 -24 -50 -8 -19 -51 -97 -97 -174 -46
-76 -83 -140 -83 -143 0 -4 -15 -24 -42 -54 -10 -10 -18 -22 -18 -25 0 -7
-144 -198 -184 -243 -112 -126 -147 -164 -215 -231 -98 -97 -200 -190 -207
-190 -4 0 -14 -8 -23 -18 -9 -10 -34 -31 -56 -47 -22 -17 -42 -32 -45 -36 -13
-14 -120 -89 -129 -89 -5 0 -11 -4 -13 -8 -5 -12 -144 -102 -157 -102 -6 0
-11 -3 -11 -8 0 -4 -28 -23 -62 -42 -35 -19 -72 -40 -83 -47 -11 -7 -31 -17
-45 -23 -14 -6 -72 -34 -130 -62 -143 -68 -154 -73 -240 -103 -41 -15 -91 -33
-110 -40 -19 -7 -59 -21 -87 -29 -29 -9 -74 -22 -100 -30 -107 -32 -313 -72
-548 -107 -54 -8 -312 -14 -786 -16 -695 -4 -708 -4 -795 17 -89 22 -264 95
-264 111 0 5 -4 9 -10 9 -15 0 -46 27 -137 118 -46 46 -83 89 -83 97 0 8 -4
15 -8 15 -4 0 -23 29 -40 63 -18 35 -39 64 -47 64 -8 0 -13 -2 -11 -5 3 -2 -4
-13 -15 -25 -18 -19 -19 -37 -19 -244 l0 -223 -696 0 c-651 0 -696 1 -683 17
29 35 64 68 74 68 6 0 10 5 10 10 0 13 53 65 66 65 5 0 13 8 16 17 9 23 213
228 227 228 6 0 11 5 11 10 1 13 217 229 230 230 6 0 10 5 10 11 0 14 295 309
309 309 6 0 11 5 11 10 1 13 217 229 230 230 6 0 10 5 10 11 0 5 37 47 81 92
64 65 83 90 88 119 3 21 6 271 6 556 0 572 -2 550 65 613 69 65 61 64 636 64
344 0 518 3 514 10 -3 6 3 10 15 10 13 0 18 -4 14 -11 -3 -6 8 -3 25 6 18 9
35 23 38 31 3 7 12 14 19 14 8 0 18 8 21 17 9 23 49 63 63 63 6 0 14 8 17 17
9 23 54 68 68 68 5 0 10 5 10 10 0 14 290 305 304 305 6 0 14 7 18 16 8 21 46
59 67 67 9 4 16 11 16 17 0 14 40 54 63 63 9 3 17 11 17 17 0 14 51 65 65 65
5 0 10 5 10 10 0 14 286 300 308 308 9 3 17 11 17 16 0 13 43 56 64 64 9 4 16
12 16 18 0 6 9 20 21 30 19 17 18 46 -1 34 -5 -3 -11 -1 -15 5 -3 6 1 13 9 16
21 8 20 21 -2 49 -70 88 -230 181 -372 216 -70 18 -136 19 -1013 19 l-938 0
-47 26 c-51 29 -63 41 -92 96 -19 36 -20 60 -20 927 0 842 1 894 19 968 23 95
41 144 73 203 45 82 63 110 71 110 4 0 7 5 7 12 0 6 32 42 70 79 134 128 257
192 430 224 100 19 1213 19 1440 0z m360 -2965 c0 -5 -2 -10 -4 -10 -3 0 -8 5
-11 10 -3 6 -1 10 4 10 6 0 11 -4 11 -10z m-71 -76 c-6 -7 -15 -11 -20 -8 -5
3 -3 11 4 18 16 18 31 8 16 -10z m-74 -64 c3 -5 1 -10 -4 -10 -6 0 -11 5 -11
10 0 6 2 10 4 10 3 0 8 -4 11 -10z m-245 -254 c0 -11 -19 -15 -25 -6 -3 5 1
10 9 10 9 0 16 -2 16 -4z m-83 -80 c-6 -8 -15 -12 -19 -9 -4 2 -2 10 5 17 6 8
15 12 19 9 4 -2 2 -10 -5 -17z m-80 -80 c-6 -8 -15 -12 -19 -9 -4 2 -2 10 5
17 6 8 15 12 19 9 4 -2 2 -10 -5 -17z m-78 -82 c-6 -7 -15 -11 -20 -8 -5 3 -3
11 4 18 16 18 31 8 16 -10z m-74 -64 c3 -5 1 -10 -4 -10 -6 0 -11 5 -11 10 0
6 2 10 4 10 3 0 8 -4 11 -10z m-245 -254 c0 -11 -19 -15 -25 -6 -3 5 1 10 9
10 9 0 16 -2 16 -4z m-83 -80 c-6 -8 -15 -12 -19 -9 -4 2 -2 10 5 17 6 8 15
12 19 9 4 -2 2 -10 -5 -17z m-80 -80 c-6 -8 -15 -12 -19 -9 -4 2 -2 10 5 17 6
8 15 12 19 9 4 -2 2 -10 -5 -17z m-75 -74 c-7 -2 -12 -11 -12 -19 0 -9 -3 -14
-6 -10 -10 10 7 48 19 40 8 -5 8 -8 -1 -11z m-1452 -1452 c0 -5 -2 -10 -4 -10
-3 0 -8 5 -11 10 -3 6 -1 10 4 10 6 0 11 -4 11 -10z m-71 -76 c-6 -7 -15 -11
-20 -8 -5 3 -3 11 4 18 16 18 31 8 16 -10z m-80 -80 c-6 -7 -15 -11 -20 -8 -5
3 -3 11 4 18 16 18 31 8 16 -10z m-80 -80 c-6 -7 -15 -11 -20 -8 -5 3 -3 11 4
18 16 18 31 8 16 -10z m-74 -64 c3 -5 1 -10 -4 -10 -6 0 -11 5 -11 10 0 6 2
10 4 10 3 0 8 -4 11 -10z m-255 -260 c0 -5 -2 -10 -4 -10 -3 0 -8 5 -11 10 -3
6 -1 10 4 10 6 0 11 -4 11 -10z m-71 -76 c-6 -7 -15 -11 -20 -8 -5 3 -3 11 4
18 16 18 31 8 16 -10z m-80 -80 c-6 -7 -15 -11 -20 -8 -5 3 -3 11 4 18 16 18
31 8 16 -10z m-80 -80 c-6 -7 -15 -11 -20 -8 -5 3 -3 11 4 18 16 18 31 8 16
-10z m-74 -64 c3 -5 1 -10 -4 -10 -6 0 -11 5 -11 10 0 6 2 10 4 10 3 0 8 -4
11 -10z m-165 -174 c0 -11 -19 -15 -25 -6 -3 5 1 10 9 10 9 0 16 -2 16 -4z
m-81 -82 c-6 -7 -15 -11 -20 -8 -5 3 -3 11 4 18 16 18 31 8 16 -10z m-80 -80
c-6 -7 -15 -11 -20 -8 -5 3 -3 11 4 18 16 18 31 8 16 -10z m-74 -64 c3 -5 1
-10 -4 -10 -6 0 -11 5 -11 10 0 6 2 10 4 10 3 0 8 -4 11 -10z"/>
<path d="M22765 14821 c-3 -5 -2 -12 3 -15 5 -3 9 1 9 9 0 17 -3 19 -12 6z"/>
<path d="M31091 15781 c-9 -6 -10 -11 -2 -15 8 -5 11 -236 11 -817 l0 -809
1115 0 1115 0 0 809 c0 581 3 812 11 817 8 4 7 9 -2 15 -18 11 -2230 11 -2248
0z m2148 -38 c0 -6 -894 -662 -1007 -740 -15 -10 -85 38 -517 353 -275 201
-507 371 -515 379 -12 13 115 15 1013 15 565 0 1027 -3 1026 -7z m-1551 -410
c284 -207 521 -376 528 -376 6 0 243 169 527 376 284 208 519 377 522 377 3 0
5 -337 5 -750 l0 -750 -1055 0 -1055 0 0 750 c0 413 3 750 6 750 3 0 238 -169
522 -377z"/>
<path d="M40731 15656 c-54 -30 -67 -106 -26 -154 29 -35 62 -44 103 -26 77
32 83 142 11 180 -34 17 -57 17 -88 0z"/>
<path d="M42271 15656 c-86 -48 -54 -188 44 -188 98 0 131 143 44 188 -34 17
-57 17 -88 0z"/>
<path d="M46881 15656 c-55 -30 -67 -106 -25 -155 21 -26 33 -31 69 -31 36 0
48 5 69 31 42 50 30 126 -25 155 -34 17 -57 17 -88 0z"/>
<path d="M49220 15657 c-168 -47 -291 -237 -346 -532 -20 -109 -23 -338 -4
-445 26 -156 94 -276 180 -320 80 -41 221 -42 329 -2 46 18 46 18 49 69 l3 52
-55 -25 c-58 -26 -162 -41 -219 -30 -51 10 -119 74 -150 143 -34 76 -48 171
-48 319 0 393 146 690 337 688 94 -2 151 -58 191 -189 23 -77 26 -408 4 -495
-24 -96 -53 -130 -92 -110 -27 15 -25 68 11 317 17 113 30 208 30 209 0 1 -15
-2 -32 -7 -18 -5 -67 -6 -110 -3 -68 6 -80 4 -113 -16 -79 -49 -132 -178 -142
-345 -6 -111 11 -197 45 -229 54 -48 136 -37 181 25 l29 40 7 -31 c13 -60 101
-83 173 -46 55 29 100 121 121 251 16 93 7 388 -14 459 -34 120 -87 196 -164
236 -50 25 -144 33 -201 17z m74 -460 c17 -12 17 -20 -4 -167 -21 -161 -45
-231 -83 -252 -15 -7 -23 -6 -36 6 -13 13 -16 37 -15 119 1 129 25 236 64 277
31 33 47 37 74 17z"/>
<path d="M52271 15656 c-86 -48 -54 -188 44 -188 98 0 131 143 44 188 -34 17
-57 17 -88 0z"/>
<path d="M39730 15145 l0 -515 60 0 60 0 0 243 0 243 51 57 c59 66 93 87 144
87 51 0 74 -15 96 -63 17 -38 19 -69 19 -304 l0 -263 61 0 60 0 -3 298 c-3
285 -4 299 -25 339 -29 53 -76 89 -134 102 -85 19 -155 -3 -226 -72 l-43 -41
0 202 0 202 -60 0 -60 0 0 -515z"/>
<path d="M43580 15145 l0 -515 60 0 60 0 0 243 0 243 51 57 c59 66 93 87 144
87 51 0 74 -15 96 -63 17 -38 19 -69 19 -304 l0 -263 61 0 60 0 -3 298 c-3
285 -4 299 -25 339 -41 77 -123 117 -215 106 -55 -6 -94 -26 -145 -76 l-43
-41 0 202 0 202 -60 0 -60 0 0 -515z"/>
<path d="M44360 15145 l0 -515 65 0 65 0 0 181 c-1 100 1 183 3 186 3 2 73
-79 156 -181 l152 -186 79 0 c44 0 80 2 80 5 0 3 -74 92 -165 197 l-166 192
63 65 c35 36 108 112 163 169 l100 102 -85 -1 -85 -1 -145 -158 c-80 -87 -146
-157 -148 -156 -1 2 -3 140 -5 307 l-2 304 -62 3 -63 3 0 -516z"/>
<path d="M45110 15145 l0 -515 60 0 60 0 0 243 0 243 51 57 c59 66 93 87 144
87 51 0 74 -15 96 -63 17 -38 19 -69 19 -304 l0 -263 61 0 60 0 -3 298 c-3
285 -4 299 -25 339 -29 54 -76 89 -137 103 -84 19 -151 -4 -223 -73 l-43 -41
0 202 0 202 -60 0 -60 0 0 -515z"/>
<path d="M52840 15605 l0 -55 100 0 100 0 0 -405 0 -405 -110 0 -110 0 0 -55
0 -55 275 0 275 0 0 55 0 55 -100 0 -100 0 -1 443 c-1 243 -1 450 0 460 2 16
-12 17 -163 17 l-166 0 0 -55z"/>
<path d="M48370 15594 c-89 -15 -141 -28 -148 -38 -12 -15 -13 -106 -2 -106 5
0 35 7 67 15 71 19 173 19 216 1 53 -22 71 -50 75 -119 3 -52 0 -67 -20 -96
-36 -54 -75 -71 -172 -78 l-86 -6 0 -47 0 -47 94 -6 c108 -7 166 -27 201 -69
21 -25 25 -40 25 -91 0 -77 -22 -117 -82 -149 -39 -21 -56 -23 -196 -23 l-152
0 0 -52 c0 -64 1 -65 158 -65 187 0 299 47 366 155 34 55 46 160 27 220 -15
44 -99 123 -142 132 l-30 7 39 28 c70 50 102 115 102 204 -1 92 -51 166 -140
205 -45 19 -153 33 -200 25z"/>
<path d="M39125 15576 l-40 -13 -3 -101 -3 -102 -94 0 -95 0 0 -55 0 -55 95 0
95 0 1 -187 c0 -104 2 -210 5 -238 7 -75 41 -134 98 -169 42 -27 59 -31 140
-34 50 -1 111 1 136 5 l45 8 3 59 c3 53 1 58 -15 51 -10 -4 -56 -9 -103 -12
-78 -5 -88 -3 -120 19 -57 39 -60 51 -60 286 l0 212 150 0 150 0 0 55 0 55
-150 0 -150 0 -1 93 c-1 50 0 102 1 115 2 26 -20 28 -85 8z"/>
<path d="M47703 15565 c-211 -57 -306 -220 -307 -525 -1 -157 21 -248 77 -322
70 -94 219 -128 349 -79 76 29 147 106 173 186 40 129 -2 288 -92 345 -90 57
-209 63 -326 16 -51 -21 -57 -22 -57 -7 0 33 31 136 51 168 27 43 91 87 154
106 63 18 52 17 140 17 l75 0 0 55 0 55 -92 -1 c-51 0 -117 -7 -145 -14z m114
-483 c44 -31 63 -78 63 -155 0 -78 -8 -103 -50 -151 -42 -47 -96 -62 -166 -47
-87 20 -129 90 -140 234 l-7 85 34 18 c95 49 209 56 266 16z"/>
<path d="M34635 15371 c-49 -12 -93 -39 -136 -83 l-39 -40 0 56 0 56 -55 0
-55 0 0 -365 0 -365 60 0 60 0 0 244 0 244 51 57 c62 67 94 85 149 85 34 0 48
-6 70 -30 15 -16 30 -44 34 -61 3 -17 6 -146 6 -285 l0 -254 61 0 60 0 -3 298
c-3 284 -4 299 -25 338 -31 57 -73 90 -133 103 -56 12 -62 12 -105 2z"/>
<path d="M35329 15370 c-132 -23 -212 -118 -212 -251 0 -53 5 -76 25 -112 l25
-45 -31 -48 c-26 -41 -31 -57 -31 -110 0 -55 3 -66 28 -92 l28 -29 -34 -35
c-61 -65 -71 -160 -24 -229 82 -121 414 -130 544 -16 96 85 98 241 3 303 -53
36 -91 44 -225 50 -139 6 -164 10 -187 31 -25 22 -22 73 6 110 1 1 20 -4 41
-12 47 -17 135 -19 185 -5 114 32 184 126 182 246 0 35 -7 77 -15 93 l-15 30
52 3 51 3 3 51 3 52 -153 5 c-84 3 -164 8 -178 11 -14 2 -46 1 -71 -4z m136
-119 c63 -35 84 -139 44 -211 -27 -48 -66 -70 -124 -70 -84 0 -136 49 -143
135 -11 135 106 212 223 146z m41 -617 c84 -12 114 -96 56 -154 -37 -36 -88
-50 -182 -49 -89 1 -137 16 -163 51 -26 35 -16 87 25 133 l30 35 102 -6 c55
-3 115 -7 132 -10z"/>
<path d="M37646 15370 c-98 -17 -190 -101 -232 -213 -26 -71 -27 -256 -1 -340
26 -84 100 -159 182 -183 70 -21 219 -21 305 -1 l55 12 3 54 3 53 -38 -7 c-76
-15 -157 -22 -207 -18 -110 9 -184 75 -194 173 l-5 50 242 0 241 0 0 79 c0
236 -146 376 -354 341z m134 -122 c54 -28 90 -90 90 -155 l0 -43 -175 0 -175
0 0 23 c0 33 27 108 49 134 53 64 135 79 211 41z"/>
<path d="M38475 15371 c-49 -12 -93 -39 -136 -83 l-39 -40 0 56 0 56 -55 0
-55 0 0 -365 0 -365 60 0 60 0 0 244 0 244 51 57 c62 67 94 85 149 85 34 0 48
-6 70 -30 15 -16 30 -44 34 -61 3 -17 6 -146 6 -285 l0 -254 61 0 60 0 -3 298
c-3 284 -4 299 -25 338 -31 57 -73 90 -133 103 -56 12 -62 12 -105 2z"/>
<path d="M41425 15366 c-36 -16 -56 -37 -83 -91 l-21 -40 -1 63 0 62 -50 0
-50 0 0 -365 0 -365 55 0 55 0 0 233 c0 226 1 233 25 285 38 81 63 112 91 112
17 0 27 -8 34 -26 6 -14 10 -151 10 -315 l0 -289 55 0 55 0 0 238 1 237 37 69
c42 80 69 103 95 83 24 -18 25 -34 26 -344 l1 -283 55 0 55 0 0 303 c-1 258
-3 309 -18 351 -21 60 -56 88 -111 90 -51 1 -86 -24 -128 -94 -30 -48 -33 -51
-33 -27 0 90 -78 147 -155 113z"/>
<path d="M43100 15371 c-51 -11 -96 -37 -141 -83 l-39 -40 0 56 0 56 -55 0
-55 0 0 -365 0 -365 60 0 60 0 0 244 0 244 51 57 c61 66 94 85 147 85 50 0 88
-29 102 -78 5 -21 10 -149 10 -294 l0 -258 61 0 60 0 -3 298 c-3 284 -4 299
-25 338 -31 57 -73 90 -133 103 -28 6 -54 10 -58 10 -4 -1 -23 -4 -42 -8z"/>
<path d="M46075 15369 c-32 -5 -81 -16 -107 -25 l-48 -16 0 -58 0 -59 34 14
c91 38 232 48 286 20 37 -19 68 -80 64 -127 -1 -18 -3 -38 -3 -44 -1 -8 -45
-13 -130 -16 -118 -4 -134 -7 -188 -34 -40 -20 -67 -43 -88 -72 -27 -40 -30
-51 -30 -126 0 -73 3 -87 27 -123 73 -110 258 -116 389 -12 l39 31 0 -46 0
-46 55 0 55 0 0 273 c0 151 -5 288 -10 308 -34 124 -168 185 -345 158z m225
-476 c0 -65 -2 -69 -33 -94 -58 -47 -117 -71 -171 -71 -44 0 -54 4 -79 32 -26
29 -29 38 -25 82 6 56 34 93 82 107 17 5 75 10 129 10 l97 1 0 -67z"/>
<path d="M49933 15369 c-129 -24 -205 -116 -205 -251 -1 -53 5 -76 24 -111
l25 -45 -29 -46 c-50 -76 -50 -148 -2 -206 l27 -31 -22 -15 c-27 -20 -59 -81
-67 -132 -8 -50 21 -120 62 -149 59 -42 122 -57 244 -57 131 0 203 21 267 77
96 85 98 240 3 305 -47 32 -90 41 -225 47 -140 7 -164 11 -187 32 -31 28 -12
121 21 107 129 -53 290 -14 352 85 38 59 53 134 39 197 -6 26 -16 54 -22 61
-11 14 -14 13 57 16 l40 2 3 51 3 51 -158 6 c-87 4 -169 8 -183 10 -14 2 -44
0 -67 -4z m142 -118 c63 -35 84 -139 44 -211 -27 -48 -66 -70 -124 -70 -26 0
-60 7 -75 17 -39 22 -70 82 -70 132 0 126 116 193 225 132z m41 -617 c84 -12
114 -96 56 -154 -37 -36 -88 -50 -182 -49 -89 1 -137 16 -163 51 -26 35 -16
87 25 133 l30 35 102 -6 c55 -3 115 -7 132 -10z"/>
<path d="M50655 15365 c-36 -15 -55 -36 -83 -90 l-21 -40 -2 35 c0 19 0 47 1
63 1 26 0 27 -49 27 l-51 0 0 -365 0 -365 55 0 55 0 0 233 c0 226 1 233 25
285 40 86 63 114 93 110 18 -2 28 -11 33 -28 4 -14 7 -154 8 -312 l1 -288 55
0 55 0 0 238 1 237 37 69 c44 82 69 103 98 82 18 -14 19 -31 22 -320 l3 -306
55 0 54 0 0 298 c0 376 -10 418 -101 442 -66 18 -122 -18 -167 -105 -20 -38
-21 -39 -22 -12 -1 92 -76 146 -155 112z"/>
<path d="M51465 15368 c-32 -4 -81 -15 -107 -24 l-48 -16 0 -58 0 -59 34 14
c91 38 232 48 286 20 40 -21 60 -63 60 -128 l0 -55 -129 -4 c-119 -3 -133 -6
-187 -33 -39 -20 -68 -45 -89 -73 -28 -40 -30 -50 -30 -126 0 -73 3 -87 27
-123 73 -111 257 -117 389 -12 l39 31 0 -46 0 -46 55 0 55 0 0 273 c0 151 -5
288 -10 308 -35 125 -162 183 -345 157z m226 -445 c0 -21 2 -49 3 -62 6 -52
-121 -133 -208 -133 -44 0 -54 4 -79 32 -26 29 -29 38 -25 82 6 56 34 93 82
107 17 5 75 10 129 10 l97 1 1 -37z"/>
<path d="M55323 15369 c-195 -37 -305 -262 -248 -507 43 -181 184 -273 367
-240 69 13 114 37 164 90 51 52 70 89 87 165 51 221 -27 426 -182 478 -57 19
-133 25 -188 14z m158 -132 c70 -47 99 -117 99 -238 0 -174 -68 -269 -194
-270 -141 -2 -217 125 -193 324 16 140 78 206 193 207 47 0 69 -5 95 -23z"/>
<path d="M56035 15366 c-36 -16 -56 -37 -83 -91 l-21 -40 -2 35 c0 19 0 47 1
63 1 26 0 27 -49 27 l-51 0 0 -365 0 -365 55 0 55 0 0 233 c0 226 1 233 25
285 40 86 63 114 93 110 18 -2 28 -11 33 -28 4 -14 7 -154 8 -312 l1 -288 55
0 55 0 0 238 1 237 37 69 c42 80 69 103 95 83 24 -18 25 -34 26 -344 l1 -283
55 0 55 0 0 298 c0 376 -10 418 -101 442 -66 18 -122 -18 -167 -105 -20 -38
-21 -39 -22 -12 0 51 -27 97 -64 112 -43 18 -52 18 -91 1z"/>
<path d="M54562 15351 c-98 -34 -171 -114 -206 -225 -14 -44 -17 -81 -14 -165
3 -100 6 -114 38 -177 63 -123 158 -170 324 -162 50 3 109 11 131 19 40 14 40
14 43 73 4 58 3 59 -20 51 -100 -31 -129 -36 -185 -32 -136 10 -203 91 -204
245 0 45 5 99 12 119 45 139 177 196 329 143 30 -11 59 -19 63 -20 11 0 7 89
-5 112 -19 38 -214 51 -306 19z"/>
<path d="M35882 15063 c3 -283 4 -300 25 -338 42 -79 91 -107 188 -107 73 -1
122 22 183 82 l42 42 0 -56 0 -56 55 0 55 0 0 365 0 365 -60 0 -60 0 0 -244 0
-244 -51 -57 c-60 -65 -94 -85 -144 -85 -51 0 -74 15 -96 63 -17 38 -19 69
-19 305 l0 262 -61 0 -60 0 3 -297z"/>
<path d="M36590 15352 c0 -5 60 -170 134 -367 133 -354 135 -359 119 -389 -57
-111 -125 -161 -213 -154 l-50 3 0 -57 c0 -56 1 -58 28 -59 123 -6 219 32 284
114 62 79 106 180 243 562 69 192 125 351 125 353 0 2 -30 2 -67 0 l-66 -3
-88 -260 c-48 -143 -92 -273 -99 -290 -11 -29 -13 -26 -56 100 -24 72 -70 202
-102 290 l-58 160 -67 3 c-37 2 -67 -1 -67 -6z"/>
<path d="M40530 15305 c0 -39 4 -55 13 -54 6 1 51 1 100 0 l87 -1 0 -255 0
-255 -110 0 -110 0 0 -55 0 -55 275 0 275 0 0 55 0 55 -100 0 -100 0 0 310 0
310 -165 0 -165 0 0 -55z"/>
<path d="M42070 15305 l0 -55 100 0 100 0 0 -255 0 -255 -110 0 -110 0 0 -55
0 -55 275 0 275 0 0 55 0 55 -100 0 -100 0 0 310 0 310 -165 0 -165 0 0 -55z"/>
<path d="M46680 15305 l0 -55 100 0 100 0 0 -255 0 -255 -110 0 -110 0 0 -55
0 -55 275 0 275 0 0 55 0 55 -100 0 -100 0 0 310 0 310 -165 0 -165 0 0 -55z"/>
<path d="M52070 15305 l0 -55 100 0 100 0 0 -255 0 -255 -110 0 -110 0 0 -55
0 -55 275 0 275 0 0 55 0 55 -100 0 -100 0 0 310 0 310 -165 0 -165 0 0 -55z"/>
<path d="M53782 14835 c-62 -52 -60 -158 4 -200 31 -20 93 -22 121 -4 61 37
74 136 25 190 -40 45 -106 52 -150 14z"/>
<path d="M31355 13016 c-28 -6 -68 -21 -88 -33 -21 -13 -41 -23 -45 -23 -10 0
-112 -106 -112 -116 0 -4 -10 -28 -22 -53 l-23 -46 0 -780 0 -780 29 -60 c51
-104 159 -187 277 -214 26 -6 212 -11 447 -11 l402 0 0 405 0 405 -140 0 -140
0 0 175 0 175 140 0 140 0 0 93 c0 86 19 196 39 221 5 6 11 22 14 36 4 14 24
44 46 68 21 23 42 49 45 57 3 9 14 18 23 22 10 3 32 16 48 28 17 11 57 31 91
43 55 20 81 22 248 22 l186 0 0 -175 0 -175 -161 0 -161 0 -29 -29 c-28 -28
-29 -33 -29 -120 l0 -91 190 0 190 0 0 -175 0 -175 -190 0 -190 0 0 -406 0
-406 248 4 c261 3 249 1 360 55 53 26 126 104 158 168 l29 60 0 780 0 780 -22
46 c-13 25 -23 49 -23 54 0 17 -106 111 -155 136 -27 15 -74 32 -103 38 -75
16 -1647 13 -1717 -3z"/>
<path d="M34713 12592 c-217 -76 -356 -377 -355 -772 0 -165 18 -270 61 -365
38 -83 72 -119 146 -156 57 -28 72 -31 153 -30 68 0 108 6 159 23 l68 24 3 51
3 51 -63 -26 c-52 -22 -79 -27 -155 -27 -86 0 -94 2 -135 30 -91 64 -140 225
-137 445 6 413 180 716 385 670 67 -15 102 -45 134 -112 42 -89 53 -174 48
-377 -4 -152 -8 -184 -27 -234 -25 -63 -49 -84 -81 -67 -28 15 -26 78 10 317
35 226 34 217 18 206 -7 -4 -63 -8 -125 -8 -109 0 -112 -1 -149 -31 -42 -34
-74 -89 -101 -174 -23 -74 -25 -301 -3 -344 43 -84 144 -94 209 -20 17 19 32
34 35 34 2 0 7 -11 10 -25 14 -56 97 -78 166 -43 58 30 95 85 122 185 17 64
21 108 22 253 1 203 -14 288 -68 385 -71 129 -214 184 -353 137z m108 -460 c4
-4 -4 -81 -17 -171 -25 -169 -42 -219 -86 -242 -33 -18 -48 8 -52 92 -10 184
51 352 122 334 15 -3 30 -9 33 -13z"/>
<path d="M37091 12596 c-86 -48 -54 -186 44 -186 47 0 71 14 91 52 44 85 -51
180 -135 134z"/>
<path d="M35250 12085 l0 -515 65 0 65 0 0 243 0 243 37 44 c60 70 109 100
163 100 57 0 93 -28 109 -86 6 -23 11 -142 11 -291 l0 -253 66 0 66 0 -5 283
c-4 305 -8 329 -60 392 -38 46 -88 67 -162 68 -73 1 -134 -25 -187 -78 -21
-21 -38 -31 -38 -24 -1 8 0 98 0 202 l1 187 -66 0 -65 0 0 -515z"/>
<path d="M38090 12452 l0 -147 -112 0 c-129 0 -174 -15 -248 -81 -76 -69 -112
-168 -112 -307 1 -231 87 -358 243 -359 74 -1 154 36 204 94 19 23 36 36 36
30 1 -7 3 -16 4 -22 1 -5 3 -28 4 -50 l1 -40 55 0 55 0 0 515 0 515 -65 0 -65
0 0 -148z m-37 -263 l37 -10 0 -179 0 -179 -57 -61 c-65 -70 -97 -90 -148 -90
-63 0 -111 51 -130 138 -10 50 -8 193 4 239 27 98 96 153 196 153 33 0 77 -5
98 -11z"/>
<path d="M41650 12085 l0 -515 65 0 65 0 0 243 0 243 37 44 c60 70 109 100
163 100 57 0 93 -28 109 -86 6 -23 11 -142 11 -291 l0 -253 66 0 66 0 -5 283
c-4 305 -8 329 -60 392 -38 46 -88 67 -162 68 -73 1 -134 -25 -187 -78 -21
-21 -38 -31 -38 -24 -1 8 0 98 0 202 l1 187 -66 0 -65 0 0 -515z"/>
<path d="M36255 12309 c-32 -5 -83 -16 -112 -24 l-53 -16 0 -58 0 -59 76 24
c50 16 101 25 149 25 127 1 175 -38 175 -144 l0 -55 -132 -5 c-154 -6 -193
-16 -253 -69 -52 -46 -75 -104 -70 -181 7 -122 88 -190 225 -189 78 0 135 20
201 68 l49 36 0 -46 0 -46 56 0 55 0 -3 298 -3 299 -28 42 c-31 46 -73 76
-127 90 -59 16 -142 20 -205 10z m236 -426 c3 -34 1 -115 -3 -117 -124 -104
-233 -129 -293 -68 -36 35 -35 108 1 151 33 40 67 49 192 50 90 1 102 -1 103
-16z"/>
<path d="M38655 12309 c-32 -5 -83 -16 -112 -24 l-53 -16 0 -58 0 -59 76 24
c50 16 101 25 149 25 127 1 175 -38 175 -144 l0 -55 -132 -5 c-154 -6 -193
-16 -253 -69 -52 -46 -75 -104 -70 -181 7 -122 88 -190 225 -189 78 0 135 20
201 68 l49 36 0 -46 0 -46 56 0 55 0 -3 298 -3 299 -28 42 c-31 46 -73 76
-127 90 -59 16 -142 20 -205 10z m236 -426 c3 -34 1 -115 -3 -117 -124 -104
-233 -129 -293 -68 -36 35 -35 108 1 151 33 40 67 49 192 50 90 1 102 -1 103
-16z"/>
<path d="M39538 12306 c-52 -14 -119 -57 -148 -94 l-19 -23 -3 53 -3 53 -57 3
-58 3 0 -366 0 -365 65 0 65 0 0 244 0 244 51 57 c60 65 94 85 143 85 49 0 85
-19 104 -54 15 -26 17 -71 20 -303 l3 -273 65 0 66 0 -5 283 c-4 307 -8 335
-60 394 -53 60 -143 83 -229 59z"/>
<path d="M40263 12310 c-93 -19 -173 -84 -199 -163 -21 -63 -15 -150 14 -205
l22 -42 -29 -46 c-52 -80 -50 -170 4 -212 l24 -19 -30 -29 c-115 -109 -71
-262 88 -311 79 -24 257 -24 329 1 127 42 188 115 189 223 0 69 -17 101 -75
140 -49 34 -92 43 -245 49 -190 9 -224 29 -190 109 12 29 19 36 32 30 51 -21
95 -27 159 -23 127 8 218 78 244 189 12 51 7 128 -12 162 -13 25 -6 30 47 29
l45 -1 0 53 0 54 -157 5 c-87 3 -171 7 -188 10 -16 3 -49 1 -72 -3z m149 -116
c59 -31 85 -135 50 -204 -51 -102 -211 -108 -264 -9 -31 59 -17 162 28 200 46
38 126 44 186 13z m44 -620 c84 -12 114 -96 56 -154 -36 -36 -87 -50 -183 -50
-85 0 -133 12 -167 44 -35 31 -26 96 19 142 l33 34 105 -6 c58 -3 120 -7 137
-10z"/>
<path d="M43545 12305 c-27 -8 -54 -14 -58 -15 -5 0 -33 -23 -63 -51 l-54 -52
0 57 0 56 -60 0 -60 0 0 -515 0 -515 65 0 65 0 0 148 0 147 108 0 c140 0 197
19 268 89 80 81 99 139 99 306 -1 117 -4 143 -24 194 -31 77 -85 130 -152 150
-62 19 -69 19 -134 1z m125 -142 c44 -45 60 -103 60 -222 0 -182 -69 -271
-211 -271 -34 0 -79 5 -100 12 l-39 11 0 182 0 182 54 57 c61 63 102 85 160
86 31 0 45 -7 76 -37z"/>
<path d="M44397 12309 c-55 -13 -94 -35 -149 -86 l-48 -46 0 62 0 61 -60 0
-60 0 0 -365 0 -365 65 0 65 0 0 236 0 236 40 48 c135 162 290 142 290 -37 l0
-33 66 0 67 0 -7 67 c-9 85 -33 139 -79 180 -45 40 -122 56 -190 42z"/>
<path d="M45078 12310 c-61 -11 -141 -55 -180 -99 -73 -83 -109 -225 -89 -357
29 -196 137 -296 321 -296 163 0 279 86 324 241 23 80 21 222 -5 306 -46 150
-200 235 -371 205z m169 -136 c65 -48 95 -124 95 -239 0 -88 -14 -141 -51
-192 -37 -52 -89 -76 -159 -74 -105 2 -170 67 -192 189 -24 140 17 269 104
323 43 28 162 23 203 -7z"/>
<path d="M45938 12306 c-52 -14 -119 -57 -148 -94 l-19 -23 -3 53 -3 53 -57 3
-58 3 0 -366 0 -365 65 0 65 0 0 244 0 244 51 57 c60 65 94 85 143 85 49 0 85
-19 104 -54 15 -26 17 -71 20 -303 l3 -273 65 0 66 0 -5 283 c-4 307 -8 335
-60 394 -53 60 -143 83 -229 59z"/>
<path d="M46653 12310 c-94 -19 -173 -84 -199 -163 -21 -63 -15 -150 14 -205
l22 -42 -29 -46 c-52 -80 -50 -170 4 -212 l24 -19 -30 -29 c-55 -52 -72 -108
-56 -186 10 -50 71 -102 144 -125 78 -24 257 -23 329 1 126 42 188 115 189
223 0 69 -17 101 -75 140 -49 34 -92 43 -240 50 -150 6 -196 19 -205 56 -9 35
21 91 43 82 88 -36 203 -32 281 10 98 54 146 159 122 267 -19 87 -21 82 32 81
l47 -1 0 53 0 53 -157 5 c-87 4 -171 8 -188 11 -16 2 -49 1 -72 -4z m149 -116
c59 -31 85 -135 50 -204 -51 -102 -211 -108 -264 -9 -31 59 -17 162 28 200 46
38 126 44 186 13z m44 -620 c84 -12 114 -96 56 -154 -36 -36 -87 -50 -183 -50
-85 0 -133 12 -167 44 -35 31 -26 96 19 142 l33 34 106 -5 c58 -3 119 -8 136
-11z"/>
<path d="M41093 12296 c-176 -58 -271 -245 -234 -461 22 -123 79 -202 180
-249 39 -18 65 -21 166 -21 80 1 133 6 160 15 40 15 40 15 43 74 3 57 3 58
-20 51 -167 -52 -253 -47 -328 21 -53 49 -75 110 -74 209 1 91 15 133 65 190
75 85 161 95 337 40 21 -7 22 -5 22 53 0 59 -1 60 -32 72 -50 19 -235 23 -285
6z"/>
<path d="M36882 12248 l3 -53 105 -3 105 -3 -3 -254 -3 -255 -114 0 -115 0 0
-55 0 -55 285 0 285 0 0 55 0 55 -105 0 -105 0 0 310 0 310 -171 0 -170 0 3
-52z"/>
<path d="M42452 12012 l3 -288 30 -59 c39 -77 93 -107 188 -107 80 1 123 18
187 78 l50 47 0 -57 0 -56 60 0 60 0 0 365 0 365 -65 0 -65 0 0 -241 0 -242
-37 -45 c-57 -70 -108 -102 -162 -102 -27 0 -56 7 -70 16 -46 33 -51 64 -51
349 l0 265 -66 0 -65 0 3 -288z"/>
<path d="M31275 9915 c-48 -22 -72 -49 -85 -91 -8 -28 -10 -245 -8 -776 3
-726 3 -737 24 -764 11 -15 33 -37 48 -48 27 -21 35 -21 1008 -24 l980 -2 35
35 c19 19 39 35 43 35 4 0 10 10 14 23 3 12 6 363 6 779 l0 757 -41 38 c-22
21 -48 41 -57 45 -10 4 -449 7 -977 7 -805 0 -965 -2 -990 -14z m531 -297 c35
-15 46 -27 60 -63 16 -42 16 -48 0 -87 -13 -35 -25 -48 -64 -66 -84 -42 -174
-29 -237 33 -35 36 -36 111 -2 147 63 67 145 80 243 36z m984 -368 c56 -24
135 -94 157 -140 28 -57 33 -116 33 -362 l0 -258 -155 0 -154 0 -3 253 c-3
245 -4 253 -25 276 -64 69 -140 80 -224 34 -75 -43 -79 -60 -79 -333 l0 -230
-155 0 -155 0 0 385 0 385 155 0 155 0 0 -45 c0 -25 3 -45 8 -45 4 0 23 13 42
29 81 66 131 81 250 77 71 -2 109 -9 150 -26z m-940 -375 l0 -385 -155 0 -155
0 0 385 0 385 155 0 155 0 0 -385z"/>
<path d="M34723 9616 c-117 -37 -225 -155 -288 -315 -50 -129 -91 -374 -80
-483 2 -18 6 -70 10 -115 8 -125 47 -239 106 -314 79 -101 266 -131 432 -69
56 21 57 22 57 60 0 21 -4 41 -9 45 -5 3 -33 -4 -63 -16 -29 -12 -87 -23 -130
-26 -70 -5 -82 -3 -130 21 -29 15 -64 40 -77 57 -124 159 -120 597 9 864 66
137 155 209 255 208 80 0 132 -36 173 -118 29 -60 43 -136 49 -275 9 -194 -20
-357 -70 -398 -23 -19 -56 -6 -64 26 -4 15 7 124 25 252 18 124 32 230 32 237
0 8 -9 9 -31 3 -16 -5 -67 -7 -112 -4 -78 6 -84 5 -128 -24 -88 -57 -144 -222
-137 -402 6 -138 42 -193 128 -194 49 0 87 20 115 62 l23 33 7 -28 c10 -40 22
-51 66 -63 52 -14 109 1 147 40 70 70 103 205 104 420 0 163 -16 256 -58 351
-63 141 -215 210 -361 165z m91 -459 c16 -12 16 -20 -4 -162 -23 -164 -32
-193 -68 -236 -49 -59 -72 -28 -74 98 -1 143 32 261 84 297 27 19 39 20 62 3z"/>
<path d="M37091 9604 c-38 -32 -49 -80 -27 -122 20 -38 44 -52 91 -52 98 0
131 141 44 186 -41 21 -74 17 -108 -12z"/>
<path d="M35260 9105 l0 -515 65 0 65 0 0 241 0 241 38 46 c98 121 226 138
268 35 11 -26 15 -92 15 -298 l0 -265 64 0 65 0 0 273 c0 290 -6 335 -49 395
-32 45 -103 76 -175 75 -75 0 -121 -19 -180 -74 l-46 -42 0 202 0 201 -65 0
-65 0 0 -515z"/>
<path d="M38120 9466 l0 -154 -37 10 c-57 16 -190 5 -245 -19 -69 -31 -131
-94 -164 -166 -24 -54 -28 -78 -32 -179 -4 -98 -1 -127 17 -185 48 -160 156
-225 306 -183 37 10 65 29 107 70 l58 56 0 -63 0 -63 60 0 60 0 0 515 0 515
-65 0 -65 0 0 -154z m-22 -265 c21 -11 22 -16 22 -178 l0 -166 -42 -55 c-104
-134 -229 -149 -281 -34 -16 35 -22 73 -25 152 -6 160 23 234 108 278 38 20
56 23 120 19 41 -2 85 -9 98 -16z"/>
<path d="M41680 9105 l0 -515 65 0 65 0 0 241 0 241 38 46 c98 120 226 138
268 37 10 -24 13 -101 15 -299 l1 -266 64 0 64 0 0 268 c0 147 -5 287 -11 312
-24 105 -100 164 -213 163 -75 0 -121 -19 -180 -74 l-46 -42 0 202 0 201 -65
0 -65 0 0 -515z"/>
<path d="M36265 9329 c-32 -5 -83 -16 -112 -24 l-53 -16 0 -60 c0 -54 2 -60
18 -54 111 48 273 60 330 25 39 -24 62 -73 62 -134 l0 -44 -137 -4 c-162 -5
-221 -24 -278 -90 -64 -76 -68 -207 -7 -280 81 -96 272 -95 395 3 l37 30 0
-46 0 -45 60 0 61 0 -2 268 c-1 179 -5 283 -14 315 -32 122 -170 182 -360 156z
m245 -473 c0 -62 -1 -65 -37 -94 -79 -62 -158 -87 -219 -71 -103 29 -97 187 9
218 18 5 80 10 140 10 l107 1 0 -64z"/>
<path d="M38658 9325 c-42 -7 -92 -18 -112 -25 l-36 -12 0 -60 c0 -53 2 -59
18 -53 118 49 266 62 323 29 43 -25 69 -76 69 -135 l0 -47 -137 -4 c-159 -5
-219 -24 -277 -88 -65 -72 -69 -209 -8 -282 82 -97 271 -96 395 3 l37 30 0
-46 0 -45 60 0 61 0 -2 268 c-1 179 -5 283 -14 315 -33 127 -179 186 -377 152z
m262 -469 c0 -62 -1 -65 -37 -94 -81 -64 -156 -88 -218 -71 -104 29 -98 187 8
218 18 5 80 10 140 10 l107 1 0 -64z"/>
<path d="M39559 9327 c-50 -14 -89 -39 -134 -87 l-30 -32 -5 54 -5 53 -57 3
-58 3 0 -366 0 -365 65 0 65 0 0 241 0 242 37 45 c58 71 108 102 163 102 57 0
93 -25 110 -74 6 -21 12 -135 13 -292 l2 -259 63 -3 62 -3 0 274 c0 292 -5
334 -50 398 -42 58 -155 89 -241 66z"/>
<path d="M40275 9326 c-71 -18 -108 -39 -147 -86 -64 -74 -76 -179 -32 -267
l25 -52 -26 -40 c-52 -78 -54 -159 -5 -211 l27 -29 -29 -28 c-80 -76 -84 -189
-8 -257 55 -50 130 -70 265 -70 174 -1 283 46 333 144 30 59 28 150 -6 197
-44 62 -155 92 -340 93 -143 0 -186 39 -137 122 9 16 14 16 50 3 92 -32 229
-11 299 47 76 62 109 194 71 285 -8 19 -15 36 -15 37 0 0 24 1 52 1 l53 0 1
51 1 52 -156 6 c-86 3 -172 8 -191 10 -19 3 -57 -1 -85 -8z m160 -115 c91 -52
88 -213 -5 -263 -104 -55 -230 16 -230 130 0 127 124 197 235 133z m40 -617
c62 -8 90 -34 90 -84 0 -77 -75 -120 -208 -120 -189 0 -252 82 -149 193 26 27
27 27 126 22 56 -3 119 -8 141 -11z"/>
<path d="M43595 9330 c-67 -14 -93 -28 -145 -76 l-50 -47 0 57 0 56 -60 0 -60
0 0 -515 0 -515 65 0 65 0 0 148 0 148 118 -1 c106 0 122 2 172 26 139 66 203
197 195 396 -9 227 -131 358 -300 323z m86 -126 c52 -26 81 -107 83 -223 1
-55 -5 -116 -13 -142 -16 -58 -64 -117 -107 -135 -40 -17 -129 -18 -190 -3
l-44 11 0 182 0 182 54 55 c85 87 149 108 217 73z"/>
<path d="M44433 9329 c-57 -11 -90 -29 -151 -84 l-52 -47 0 61 0 61 -60 0 -60
0 0 -365 0 -365 65 0 65 0 0 236 0 236 61 63 c92 96 165 120 223 74 33 -26 45
-56 48 -114 l1 -45 64 0 63 0 0 54 c0 165 -113 265 -267 235z"/>
<path d="M45110 9326 c-157 -32 -250 -152 -265 -342 -13 -174 62 -330 183
-381 57 -24 148 -33 210 -22 186 35 287 183 278 409 -2 47 -11 108 -21 135
-55 159 -206 237 -385 201z m183 -135 c24 -15 45 -41 64 -79 25 -50 28 -68 28
-152 -1 -108 -14 -157 -58 -206 -42 -48 -77 -64 -142 -64 -71 0 -114 18 -152
65 -68 81 -77 263 -20 372 49 93 183 124 280 64z"/>
<path d="M45978 9326 c-52 -14 -63 -21 -125 -80 l-43 -40 0 57 0 57 -60 0 -60
0 0 -365 0 -365 65 0 65 0 0 241 0 242 37 45 c57 70 108 102 162 102 27 0 56
-7 70 -16 46 -33 51 -64 51 -349 l0 -265 65 0 65 0 0 273 c0 292 -5 334 -50
398 -42 58 -155 89 -242 65z"/>
<path d="M46703 9330 c-172 -36 -262 -207 -187 -357 l25 -52 -26 -39 c-53 -80
-55 -158 -6 -211 l28 -30 -29 -28 c-37 -35 -50 -58 -59 -106 -17 -93 41 -172
148 -203 85 -25 260 -25 337 0 126 42 190 123 184 231 -8 134 -104 184 -360
185 -87 0 -136 11 -150 33 -12 19 -9 70 6 89 11 15 16 15 52 3 52 -19 148 -19
213 1 67 19 141 90 159 150 16 56 15 137 -2 179 l-15 35 50 0 c27 0 50 3 51 8
0 4 2 28 3 53 l2 47 -156 6 c-86 3 -172 8 -191 10 -19 3 -54 1 -77 -4z m152
-118 c91 -54 88 -214 -5 -264 -104 -55 -230 16 -230 130 0 127 125 198 235
134z m40 -617 c62 -9 90 -35 90 -85 0 -77 -75 -120 -208 -120 -141 0 -204 37
-194 114 4 25 17 50 38 72 l33 34 100 -5 c56 -3 119 -8 141 -10z"/>
<path d="M41103 9310 c-96 -34 -167 -103 -205 -199 -32 -82 -32 -251 1 -335
55 -140 175 -204 360 -193 53 3 113 11 134 18 l37 12 0 60 c0 52 -2 58 -17 52
-47 -18 -132 -35 -173 -35 -149 0 -231 90 -233 254 -1 125 47 215 138 257 54
25 149 25 222 -1 32 -11 59 -20 60 -20 2 0 3 27 3 60 l0 59 -52 16 c-73 21
-209 19 -275 -5z"/>
<path d="M36894 9268 l1 -53 95 -2 c52 -1 101 -2 108 -2 9 -1 12 -59 12 -256
l0 -255 -120 0 -120 0 0 -55 0 -55 290 0 290 0 0 55 0 55 -107 0 -108 0 3 310
3 310 -174 0 -174 0 1 -52z"/>
<path d="M42482 9033 c3 -318 6 -334 70 -400 38 -39 84 -56 153 -56 71 0 118
18 181 69 l54 44 1 -30 c1 -16 3 -34 4 -40 1 -5 3 -14 4 -20 0 -5 26 -10 56
-10 l55 0 0 365 0 365 -59 0 c-46 0 -60 -4 -65 -17 -4 -9 -6 -109 -6 -222 0
-113 1 -216 0 -229 0 -26 -89 -126 -132 -148 -36 -19 -103 -18 -133 2 -49 32
-55 72 -55 354 l0 260 -66 0 -65 0 3 -287z"/>
<path d="M27101 9055 c-2 -81 -68 -232 -141 -323 -92 -114 -244 -206 -377
-227 -48 -8 -58 -25 -15 -25 48 0 146 -39 252 -101 31 -18 161 -147 178 -177
63 -112 102 -216 103 -277 l1 -40 9 35 c5 19 13 57 19 83 11 54 60 167 72 167
4 0 8 6 8 13 0 7 14 27 30 45 17 18 30 35 30 38 0 11 96 97 129 115 20 11 50
28 66 37 46 28 148 62 184 62 48 0 37 17 -16 25 -65 10 -132 36 -211 83 -59
35 -152 112 -152 126 0 3 -13 20 -30 38 -16 18 -30 38 -30 45 0 7 -4 13 -8 13
-12 0 -61 113 -72 167 -6 26 -14 64 -19 83 l-9 35 -1 -40z"/>
</g>
</svg>
